<svg width="18" height="18" viewBox="0 0 18 18" fill="none" xmlns="http://www.w3.org/2000/svg">
<path d="M8.99996 12C8.82472 12.0003 8.6549 11.9393 8.51996 11.8275L4.01996 8.07746C3.8668 7.95016 3.77048 7.76723 3.7522 7.56891C3.73391 7.37059 3.79516 7.17312 3.92246 7.01996C4.04977 6.8668 4.2327 6.77048 4.43102 6.7522C4.62934 6.73391 4.8268 6.79516 4.97996 6.92246L8.99996 10.2825L13.02 7.04246C13.0967 6.98016 13.185 6.93364 13.2797 6.90557C13.3745 6.87749 13.4738 6.86842 13.5721 6.87888C13.6704 6.88933 13.7656 6.9191 13.8523 6.96648C13.9391 7.01386 14.0156 7.07792 14.0775 7.15496C14.1461 7.23208 14.1982 7.32255 14.2303 7.4207C14.2624 7.51886 14.2738 7.62258 14.264 7.72538C14.2541 7.82818 14.2231 7.92783 14.173 8.0181C14.1228 8.10837 14.0546 8.1873 13.9725 8.24996L9.47246 11.8725C9.33365 11.9666 9.16729 12.0115 8.99996 12Z" fill="black"/>
</svg>
