<svg width="150" height="46" viewBox="0 0 150 46" fill="none" xmlns="http://www.w3.org/2000/svg">
<path d="M90.0002 40.4431H5.1266V5.12659H29.4305L32.4684 1.519L31.1393 0H18.6076L17.6583 2.65824L8.16458 0H0.949369L0.379748 2.08861L0.569622 6.83546L0 7.78483V25.633L1.70887 27.152L0.569622 33.4178L0.949369 37.2153L0 40.4431V45.5697H18.2279L22.0254 44.0507L23.7342 45.5697H31.5191L39.3039 44.2406L47.8482 45.5697H62.8483L68.3546 44.0507L73.1014 45.5697H78.0382L89.2407 41.2026L90.0002 40.4431Z" fill="currentColor"/>
<path d="M34.9361 20.6958H29.9994V8.9236H25.6323V36.4553H29.9994V24.6831H34.9361V36.4553H39.3032V8.73373H34.9361V20.6958ZM115.822 8.73373H112.595V12.5312L116.582 9.11349L115.822 8.73373ZM102.531 23.1641V8.73373H98.1641V30.1895L99.1135 29.0502L102.531 23.1641ZM66.8349 12.7211L66.2653 8.73373H62.6577L64.5565 11.5818L66.8349 12.7211ZM18.0374 29.9996C18.0374 30.3794 18.0374 30.7591 17.8475 31.1389C17.6576 31.5186 17.6576 31.8983 17.2779 32.0882C16.8981 32.468 16.3285 32.6578 15.569 32.6578C14.8095 32.6578 14.4297 32.468 13.8601 32.0882C13.6703 31.7085 13.4804 31.5186 13.2905 31.1389C13.1006 30.7591 13.1006 30.3794 13.1006 29.9996V26.5819L9.30315 20.316V29.8097C9.11328 31.7085 9.6829 33.4173 11.012 34.9363C12.3411 36.0756 14.05 36.6452 15.7589 36.6452C17.4677 36.6452 19.1766 36.0756 20.5057 34.9363C21.645 33.4173 22.2146 31.7085 22.2146 29.8097V26.2021H18.0374V29.9996ZM15.7589 8.54386C14.8095 8.54386 14.05 8.54385 13.1006 8.9236C12.3411 9.30335 11.5816 9.6831 10.8221 10.4426C9.6829 11.9616 9.11328 13.6704 9.11328 15.5692V16.1388L10.0627 20.8857L12.531 24.3034L13.2905 23.7338V15.1894C13.2905 14.4299 13.4804 13.6705 13.8601 13.1008C14.2399 12.7211 14.8095 12.5312 15.569 12.5312C16.3285 12.5312 16.7082 12.7211 17.2779 13.1008C17.6576 13.6705 18.0374 14.4299 17.8475 15.1894V18.2274H22.0247V15.5692C22.2146 13.6704 21.645 11.9616 20.3158 10.4426C19.7462 9.87298 18.9867 9.30336 18.0374 9.11349C17.4677 8.54386 16.5184 8.35398 15.7589 8.54386ZM113.354 13.1008L112.405 18.6072V36.4553H124.177V32.468H116.772V24.3034H122.658V20.316H116.772V12.7211H124.177V8.73373H117.531L113.354 13.1008ZM131.962 33.6072L129.303 30.3794L127.784 26.2021V36.4553H132.152L131.772 35.3161L131.962 33.6072ZM140.696 17.2781V15.1894C140.886 13.4806 140.316 11.7717 139.177 10.4426C138.417 9.87298 137.658 9.49323 136.898 9.11349C136.139 8.92361 135.19 8.73373 134.24 8.73373H127.784V20.8857L128.354 22.4047L128.164 24.1135L129.683 30.1895L132.152 32.0882V25.2528H134.24C134.62 25.2528 134.81 25.2528 135 25.4426C135.19 25.4426 135.569 25.6325 135.759 25.8224C136.139 26.392 136.329 27.1515 136.329 27.911V36.6452H140.696V29.2401C140.886 27.3414 140.316 25.6325 139.177 24.1135C138.797 23.7338 138.417 23.354 137.848 23.1641C139.747 22.0249 140.696 20.1262 140.696 17.2781ZM136.519 18.4173C136.519 18.797 136.519 19.1768 136.329 19.5566C136.139 19.9363 135.949 20.316 135.759 20.6958C135.19 21.0755 134.62 21.4553 133.86 21.2654H132.152V12.7211H134.24C134.62 12.7211 134.81 12.7211 135.19 12.911C135.569 13.1008 135.759 13.2907 135.949 13.4806C136.329 14.0502 136.519 14.8097 136.519 15.5692V18.4173ZM46.7083 8.73373L42.3412 36.2654H46.3286L47.0881 31.3287H52.4045L53.164 36.2654H57.5311L53.164 8.73373H46.7083ZM47.4678 27.7211L49.5564 13.6704L51.645 27.7211H47.4678ZM69.4932 28.4806L67.5944 17.2781L65.8856 13.2907L63.9868 12.1515L59.9995 8.9236V36.4553H63.797V16.8983L67.0248 36.4553H71.202L74.24 16.7084V36.4553H78.4173V8.73373H72.3413L69.4932 28.4806ZM88.8603 8.73373H82.4046V36.2654H86.7717V25.8224H88.8603C89.8097 25.8224 90.5692 25.8224 91.5185 25.4426C92.278 25.0629 93.0375 24.6831 93.797 24.1135C94.9363 22.5945 95.5059 20.8857 95.316 18.9869V15.3793C95.5059 13.4806 94.9363 11.7717 93.797 10.2527C93.2274 9.6831 92.4679 9.11347 91.5185 8.9236C90.5692 8.73373 89.6198 8.73373 88.8603 8.73373ZM90.9489 19.5566C90.9489 20.316 90.759 21.0755 90.3793 21.6452C90.1894 21.835 89.9996 22.0249 89.6198 22.0249C89.4299 22.0249 89.0502 22.2148 88.8603 22.2148H86.7717V12.911H88.8603C89.2401 12.911 89.4299 12.911 89.6198 13.1008C89.8097 13.1008 90.1894 13.2907 90.3793 13.4806C90.759 14.0502 90.9489 14.8097 90.9489 15.5692V19.5566ZM102.531 25.4426H101.962L99.1135 30.7591L98.9236 33.2275L98.354 36.2654H109.936V32.2781H102.721L102.531 25.4426Z" fill="currentColor"/>
<path d="M150 0H131.772L122.658 2.27848L119.431 0H114.114L114.494 2.65824L111.646 0.949369L105 0H102.532H95.6964L94.1774 1.519L89.6204 0H79.747H75.9495H72.7216L68.1647 0.569627L65.1267 1.519L58.671 0H56.0127H47.6583H41.9621C41.7722 0 34.3671 1.519 34.3671 1.519L30 5.12659H144.684V40.4431H90.9495L88.8609 43.1014L86.3925 43.2913L84.4938 45.5697H125.696L131.583 44.0507L133.671 45.5697H145.064L150 42.5318V38.1646L148.671 34.1773L150 23.3545V7.02533L148.671 3.98735L150 0Z" fill="currentColor"/>
</svg>
