<svg width="50" height="50" viewBox="0 0 50 50" fill="none" xmlns="http://www.w3.org/2000/svg">
<circle cx="25" cy="25" r="24.5" stroke="#3D3D3D"/>
<path d="M15 24.5C14.7239 24.5 14.5 24.7239 14.5 25C14.5 25.2761 14.7239 25.5 15 25.5V24.5ZM35.3536 25.3536C35.5488 25.1583 35.5488 24.8417 35.3536 24.6464L32.1716 21.4645C31.9763 21.2692 31.6597 21.2692 31.4645 21.4645C31.2692 21.6597 31.2692 21.9763 31.4645 22.1716L34.2929 25L31.4645 27.8284C31.2692 28.0237 31.2692 28.3403 31.4645 28.5355C31.6597 28.7308 31.9763 28.7308 32.1716 28.5355L35.3536 25.3536ZM15 25.5H35V24.5H15V25.5Z" fill="black"/>
</svg>
