<svg width="18" height="16" viewBox="0 0 18 16" xmlns="http://www.w3.org/2000/svg">
<path d="M17.0273 3.53859C16.7655 2.93241 16.3881 2.3831 15.916 1.9214C15.4436 1.45833 14.8866 1.09033 14.2754 0.837416C13.6416 0.574121 12.9617 0.439352 12.2754 0.440932C11.3125 0.440932 10.373 0.704604 9.55664 1.20265C9.36133 1.32179 9.17578 1.45265 9 1.59523C8.82422 1.45265 8.63867 1.32179 8.44336 1.20265C7.62695 0.704604 6.6875 0.440932 5.72461 0.440932C5.03125 0.440932 4.35938 0.573744 3.72461 0.837416C3.11133 1.09132 2.55859 1.45656 2.08398 1.9214C1.61132 2.38258 1.23375 2.93202 0.972656 3.53859C0.701172 4.16945 0.5625 4.83937 0.5625 5.52882C0.5625 6.17921 0.695313 6.85695 0.958984 7.5464C1.17969 8.12257 1.49609 8.72023 1.90039 9.32374C2.54102 10.2788 3.42188 11.2749 4.51562 12.2847C6.32812 13.9585 8.12305 15.1148 8.19922 15.1616L8.66211 15.4585C8.86719 15.5894 9.13086 15.5894 9.33594 15.4585L9.79883 15.1616C9.875 15.1128 11.668 13.9585 13.4824 12.2847C14.5762 11.2749 15.457 10.2788 16.0977 9.32374C16.502 8.72023 16.8203 8.12257 17.0391 7.5464C17.3027 6.85695 17.4355 6.17921 17.4355 5.52882C17.4375 4.83937 17.2988 4.16945 17.0273 3.53859ZM9 13.9136C9 13.9136 2.04688 9.45851 2.04688 5.52882C2.04688 3.53859 3.69336 1.92531 5.72461 1.92531C7.15234 1.92531 8.39062 2.72218 9 3.88624C9.60938 2.72218 10.8477 1.92531 12.2754 1.92531C14.3066 1.92531 15.9531 3.53859 15.9531 5.52882C15.9531 9.45851 9 13.9136 9 13.9136Z" fill="black"/>
<path d="M16.8984 3.26541C16.6297 2.64322 16.2423 2.0794 15.7578 1.60551C15.2729 1.13021 14.7012 0.752496 14.0738 0.492906C13.4233 0.222658 12.7255 0.0843302 12.0211 0.0859516C11.0327 0.0859516 10.0685 0.356586 9.23054 0.867785C9.03008 0.990072 8.83963 1.12439 8.65921 1.27073C8.47879 1.12439 8.28835 0.990072 8.08788 0.867785C7.24993 0.356586 6.28568 0.0859516 5.29738 0.0859516C4.58572 0.0859516 3.89611 0.222271 3.24459 0.492906C2.61512 0.753517 2.0478 1.1284 1.56066 1.60551C1.07553 2.07887 0.687985 2.64282 0.420005 3.26541C0.141355 3.91293 -0.000976562 4.60054 -0.000976562 5.3082C-0.000976562 5.97576 0.135341 6.67139 0.405972 7.37905C0.6325 7.97044 0.957257 8.58388 1.37222 9.20333C2.02976 10.1836 2.93387 11.206 4.05648 12.2425C5.91682 13.9605 7.75911 15.1473 7.8373 15.1954L8.3124 15.5001C8.5229 15.6344 8.79353 15.6344 9.00402 15.5001L9.47912 15.1954C9.55731 15.1453 11.3976 13.9605 13.2599 12.2425C14.3826 11.206 15.2867 10.1836 15.9442 9.20333C16.3592 8.58388 16.6859 7.97044 16.9104 7.37905C17.1811 6.67139 17.3174 5.97576 17.3174 5.3082C17.3194 4.60054 17.1771 3.91293 16.8984 3.26541Z" fill="currentColor"/>
</svg>
