<svg width="108" height="108" viewBox="0 0 108 108" fill="none" xmlns="http://www.w3.org/2000/svg">
<path d="M69.4015 13.3453C68.3161 5.73767 61.6941 0 53.999 0C49.0502 0 44.3502 2.38806 41.4281 6.39032C40.8312 7.20654 41.0098 8.3515 41.826 8.94838C42.6395 9.54312 43.7872 9.36668 44.383 8.54939C46.6198 5.48884 50.2139 3.66119 53.9985 3.66119C59.8836 3.66119 64.9467 8.04689 65.7768 13.8618C65.9077 14.7751 66.6912 15.4342 67.5873 15.4342C67.6726 15.4342 67.7605 15.4277 67.8479 15.4159C68.8486 15.2727 69.5442 14.3455 69.4015 13.3453Z" fill="currentColor"/>
<path d="M95.8399 33.8372L90.3484 24.6845C90.018 24.1327 89.4222 23.7959 88.7787 23.7959H83.5162C82.5058 23.7959 81.6858 24.6159 81.6858 25.6262C81.6858 26.6366 82.5058 27.4566 83.5162 27.4566H87.7426L91.0375 32.9481H16.9605L20.2554 27.4566H22.1941C23.2044 27.4566 24.0244 26.6366 24.0244 25.6262C24.0244 24.6159 23.2044 23.7959 22.1941 23.7959H19.2193C18.5758 23.7959 17.98 24.1327 17.6496 24.6845L12.1581 33.8372C11.8186 34.4035 11.8106 35.1077 12.135 35.6815C12.4595 36.2553 13.0676 36.6103 13.7278 36.6103H94.2702C94.9304 36.6103 95.538 36.2553 95.863 35.6815C96.188 35.1077 96.1794 34.4025 95.8399 33.8372Z" fill="currentColor"/>
<path d="M86.7161 16.9587C86.4597 16.5452 86.0506 16.2519 85.5776 16.1414L60.6239 10.3051C60.1514 10.1941 59.6538 10.2767 59.2408 10.5319C58.829 10.7883 58.5351 11.1975 58.4246 11.6705L56.5428 19.7147C56.3122 20.6987 56.9235 21.6834 57.9082 21.9129C58.8922 22.1435 59.8779 21.5321 60.1074 20.5475L61.5726 14.2864L82.961 19.2894L79.6002 33.659C79.3696 34.6431 79.9809 35.6277 80.9656 35.8573C81.1066 35.89 81.2466 35.9055 81.3849 35.9055C82.2162 35.9055 82.9686 35.336 83.1643 34.4924L86.9424 18.3407C87.0539 17.8683 86.9724 17.3706 86.7161 16.9587Z" fill="currentColor"/>
<path d="M54.9675 21.2859L53.2997 7.17905C53.2428 6.69693 52.9967 6.25665 52.6149 5.95633C52.233 5.65601 51.7509 5.51873 51.2666 5.57557L20.6504 9.19439C19.647 9.31345 18.9294 10.223 19.048 11.2274L21.8286 34.7557C21.939 35.6872 22.729 36.372 23.6444 36.372C23.7157 36.372 23.7892 36.3672 23.8622 36.3592C24.865 36.2401 25.5825 35.3306 25.4646 34.3261L22.8985 12.6143L49.8793 9.42553L51.3315 21.7144C51.4506 22.7183 52.3558 23.4316 53.3646 23.3179C54.368 23.1999 55.0855 22.2898 54.9675 21.2859Z" fill="currentColor"/>
<path d="M69.4436 34.084L65.8103 18.9748C65.6966 18.5034 65.4 18.0953 64.9865 17.8416C64.5731 17.5901 64.077 17.5113 63.6024 17.6239L34.1139 24.7157C33.1309 24.9516 32.526 25.9405 32.762 26.9235L34.5778 34.4755C34.8138 35.4595 35.8027 36.065 36.7851 35.8274C37.7681 35.5915 38.3731 34.6026 38.1371 33.6196L36.7487 27.847L62.6779 21.6122L65.8832 34.9409C66.0843 35.7802 66.8351 36.3433 67.6615 36.3433C67.8036 36.3433 67.9474 36.3267 68.0916 36.2918C69.0746 36.0553 69.6795 35.067 69.4436 34.084Z" fill="currentColor"/>
<path d="M96.0998 34.6862C96.0494 33.7134 95.246 32.9497 94.2711 32.9497H13.7286C12.7537 32.9497 11.9503 33.7128 11.8999 34.6862L8.23874 106.076C8.213 106.577 8.39426 107.067 8.73963 107.431C9.08553 107.794 9.56496 108 10.0669 108H97.9312C98.4326 108 98.9126 107.794 99.2601 107.431C99.6049 107.067 99.7862 106.577 99.761 106.076L96.0998 34.6862ZM11.9932 104.339L15.4667 36.6104H92.5308L96.0043 104.339H11.9932Z" fill="currentColor"/>
<path d="M67.7278 40.271C64.6995 40.271 62.2363 42.7341 62.2363 45.7625C62.2363 48.7909 64.6995 51.254 67.7278 51.254C70.7562 51.254 73.2194 48.7909 73.2194 45.7625C73.2194 42.7341 70.7562 40.271 67.7278 40.271ZM67.7278 47.5934C66.718 47.5934 65.8975 46.7723 65.8975 45.7631C65.8975 44.7538 66.7186 43.9327 67.7278 43.9327C68.7371 43.9327 69.5582 44.7538 69.5582 45.7631C69.5582 46.7723 68.7371 47.5934 67.7278 47.5934Z" fill="currentColor"/>
<path d="M40.2708 40.271C37.2424 40.271 34.7793 42.7341 34.7793 45.7625C34.7793 48.7909 37.2424 51.254 40.2708 51.254C43.2992 51.254 45.7623 48.7909 45.7623 45.7625C45.7623 42.7341 43.2992 40.271 40.2708 40.271ZM40.2708 47.5934C39.2615 47.5934 38.4405 46.7723 38.4405 45.7631C38.4405 44.7538 39.2615 43.9327 40.2708 43.9327C41.2801 43.9327 42.1011 44.7538 42.1011 45.7631C42.1011 46.7723 41.2801 47.5934 40.2708 47.5934Z" fill="currentColor"/>
<path d="M67.7283 45.7622H67.5873C66.577 45.7622 65.757 46.5822 65.757 47.5925C65.757 47.8424 65.8063 48.0811 65.898 48.2983V57.6601C65.898 64.2205 60.5604 69.5586 53.9996 69.5586C47.4387 69.5586 42.1011 64.221 42.1011 57.6601V47.5931C42.1011 46.5827 41.2811 45.7627 40.2708 45.7627C39.2604 45.7627 38.4404 46.5827 38.4404 47.5931V57.6607C38.4404 66.2401 45.4201 73.2198 53.9996 73.2198C62.579 73.2198 69.5587 66.2401 69.5587 57.6607V47.5931C69.5587 46.5827 68.7387 45.7622 67.7283 45.7622Z" fill="currentColor"/>
</svg>
