<svg width="18" height="20" viewBox="0 0 18 20" fill="none" xmlns="http://www.w3.org/2000/svg">
<path d="M16.7525 5.70243C16.7431 5.52228 16.5944 5.38086 16.4138 5.38086H1.49854C1.31799 5.38086 1.16923 5.52218 1.15989 5.70243L0.481892 18.9228C0.477125 19.0155 0.510692 19.1063 0.574649 19.1736C0.638704 19.2408 0.727489 19.2791 0.820444 19.2791H17.0916C17.1845 19.2791 17.2733 19.2409 17.3377 19.1736C17.4016 19.1063 17.4351 19.0156 17.4305 18.9228L16.7525 5.70243ZM1.17717 18.6011L1.82041 6.05876H16.0915L16.7348 18.6011H1.17717Z" fill="white" stroke="white" stroke-width="0.5"/>
<path d="M6.41372 5.75147L6.43984 5.75147C6.62694 5.75147 6.77878 5.59962 6.77878 5.41252C6.77878 5.36624 6.76965 5.32204 6.75267 5.28182L6.75267 3.54815C6.75267 2.33327 7.74111 1.34473 8.95608 1.34473C10.1711 1.34473 11.1595 2.33317 11.1595 3.54815L11.1595 5.41242C11.1595 5.59952 11.3114 5.75137 11.4985 5.75137C11.6856 5.75137 11.8374 5.59952 11.8374 5.41242L11.8374 3.54805C11.8374 1.95926 10.5449 0.666728 8.95608 0.666728C7.3673 0.666728 6.07477 1.95926 6.07477 3.54805L6.07477 5.41242C6.07477 5.59952 6.22661 5.75147 6.41372 5.75147Z" fill="white" stroke="white" stroke-width="0.5"/>
</svg>
