<svg width="35" height="35" viewBox="0 0 35 35" fill="none" xmlns="http://www.w3.org/2000/svg">
<path d="M17.5 0C7.83649 0 0 7.83649 0 17.5C0 27.1635 7.83649 35 17.5 35C27.1635 35 35 27.1635 35 17.5C35 7.83649 27.1635 0 17.5 0ZM17.8709 27.689C17.8706 27.689 17.8712 27.689 17.8709 27.689H17.8666C16.1136 27.6882 14.391 27.2487 12.8612 26.4145L7.30885 27.8706L8.79486 22.4446C7.87815 20.8568 7.3959 19.0554 7.3967 17.21C7.3991 11.4368 12.0977 6.74007 17.8709 6.74007C20.6726 6.74114 23.3025 7.83169 25.2799 9.81064C27.2575 11.7899 28.3459 14.4206 28.3448 17.2183C28.3424 22.9917 23.6433 27.689 17.8709 27.689Z" fill="currentColor"/>
<path d="M17.874 8.50879C13.072 8.50879 9.16669 12.4125 9.16455 17.211C9.16402 18.8554 9.62438 20.4567 10.4957 21.8423L10.7026 22.1716L9.82305 25.3831L13.1179 24.519L13.436 24.7076C14.7724 25.5006 16.3046 25.9201 17.8668 25.9207H17.8702C22.6685 25.9207 26.5738 22.0167 26.5759 17.2179C26.5767 14.8924 25.672 12.7059 24.0285 11.0611C22.3849 9.41615 20.199 8.50959 17.874 8.50879ZM22.9945 20.9526C22.7764 21.5636 21.7309 22.1214 21.2281 22.1967C20.7771 22.264 20.2067 22.292 19.5798 22.0931C19.1995 21.9724 18.7122 21.8114 18.0876 21.5419C15.4624 20.4087 13.7478 17.7661 13.617 17.5915C13.4862 17.4169 12.5483 16.1728 12.5483 14.8849C12.5483 13.5973 13.2245 12.9642 13.4643 12.7025C13.7043 12.4405 13.9879 12.3751 14.1623 12.3751C14.3366 12.3751 14.5113 12.3767 14.6638 12.3842C14.8245 12.3922 15.0403 12.323 15.2526 12.8333C15.4707 13.3572 15.9941 14.6448 16.0595 14.7757C16.1249 14.9068 16.1685 15.0595 16.0814 15.2342C15.9941 15.4088 15.7041 15.7856 15.4272 16.129C15.311 16.2729 15.1596 16.4011 15.3124 16.663C15.4648 16.9247 15.9904 17.7816 16.7682 18.4754C17.768 19.3667 18.6112 19.6428 18.8729 19.7739C19.1344 19.9048 19.2871 19.8829 19.4398 19.7085C19.5923 19.5339 20.0941 18.9445 20.2684 18.6826C20.4428 18.4206 20.6174 18.4644 20.8572 18.5517C21.0973 18.6388 22.3838 19.2719 22.6455 19.4028C22.9072 19.5339 23.0816 19.5993 23.147 19.7085C23.2127 19.8177 23.2127 20.3414 22.9945 20.9526Z" fill="currentColor"/>
</svg>
