<?xml version="1.0" encoding="utf-8"?><svg viewBox="0 0 163 50" xmlns="http://www.w3.org/2000/svg" xmlns:xlink="http://www.w3.org/1999/xlink"><style>:root>svg{display:none}:root>svg:target{display:block}</style><svg fill="none" viewBox="0 0 163 37" id="footer-logo-white" xmlns="http://www.w3.org/2000/svg"><path d="M19.932 14.864h-8.434V9.2c0-1.647-.093-2.672-.28-3.074-.174-.415-.568-.622-1.182-.622-.694 0-1.135.248-1.322.743-.187.495-.28 1.567-.28 3.214v15.105c0 1.58.093 2.611.28 3.094.187.482.608.723 1.262.723.628 0 1.035-.241 1.222-.723.2-.483.3-1.614.3-3.395v-4.078h8.434v1.266c0 3.361-.24 5.745-.721 7.15-.468 1.407-1.516 2.639-3.145 3.697-1.616 1.058-3.613 1.587-5.99 1.587-2.47 0-4.507-.45-6.11-1.346-1.602-.897-2.664-2.136-3.185-3.716C.261 27.23 0 24.84 0 21.654v-9.501C0 9.809.08 8.055.24 6.89.4 5.71.875 4.58 1.663 3.495c.8-1.085 1.903-1.935 3.305-2.55C6.384.314 8.006 0 9.836 0c2.484 0 4.534.482 6.15 1.446 1.615.964 2.677 2.17 3.185 3.616.507 1.433.76 3.67.76 6.709v3.093zM30.81.683v7.312a7.299 7.299 0 012.243-1.447 7.031 7.031 0 012.604-.482c1.416 0 2.617.362 3.606 1.085 1.001.723 1.609 1.56 1.823 2.51.227.938.34 2.659.34 5.163v18.38h-8.093V14.443c0-1.554-.08-2.552-.24-2.993-.147-.442-.488-.663-1.022-.663-.494 0-.828.227-1.001.683-.174.455-.26 1.359-.26 2.711v19.023h-8.094V.683h8.093zM51.462 16.873H43.87v-1.788c0-2.062.234-3.649.701-4.76.48-1.125 1.436-2.116 2.865-2.973 1.429-.857 3.285-1.286 5.569-1.286 2.737 0 4.8.489 6.19 1.467 1.388.964 2.223 2.156 2.503 3.575.28 1.406.421 4.312.421 8.718v13.378h-7.873v-2.37c-.494.95-1.135 1.667-1.922 2.149-.775.468-1.703.703-2.785.703a6.911 6.911 0 01-3.906-1.185c-1.175-.804-1.763-2.551-1.763-5.243v-2.19c0-1.995.314-3.354.942-4.077.627-.723 2.183-1.567 4.667-2.531 2.657-1.045 4.08-1.748 4.267-2.11.187-.36.28-1.097.28-2.209 0-1.393-.107-2.296-.32-2.712-.2-.428-.541-.642-1.022-.642-.547 0-.888.18-1.022.542-.133.348-.2 1.265-.2 2.752v2.792zm2.564 3.656c-1.295.95-2.05 1.747-2.263 2.39-.2.643-.3 1.567-.3 2.772 0 1.38.086 2.27.26 2.672.187.401.547.602 1.081.602.508 0 .835-.154.982-.462.16-.321.24-1.151.24-2.49v-5.484zM72.896 6.548l-.14 2.531c.628-1.004 1.376-1.754 2.244-2.25.868-.508 1.856-.763 2.964-.763 2.164 0 3.867 1.005 5.109 3.013.68-1.004 1.449-1.754 2.303-2.25.855-.508 1.803-.763 2.845-.763 1.375 0 2.51.335 3.405 1.005.908.67 1.49 1.493 1.743 2.47.254.964.38 2.538.38 4.72v18.943h-7.852V15.828c0-2.276-.08-3.682-.24-4.218-.147-.549-.501-.823-1.062-.823-.574 0-.948.268-1.122.803-.16.536-.24 1.949-.24 4.238v17.376H75.38V16.27c0-2.61-.066-4.178-.2-4.7-.12-.522-.468-.783-1.042-.783-.36 0-.668.14-.921.421a1.562 1.562 0 00-.42 1.005c-.028.388-.04 1.225-.04 2.51v18.48h-7.854V6.549h7.993zM104.787 6.548l-.14 2.35c.721-.95 1.516-1.66 2.384-2.129a5.89 5.89 0 012.844-.703c1.256 0 2.337.342 3.245 1.025.922.67 1.496 1.446 1.723 2.33.227.884.341 2.383.341 4.5v11.228c0 2.424-.147 4.151-.441 5.182-.28 1.018-.868 1.835-1.763 2.45-.881.603-1.95.905-3.205.905a5.696 5.696 0 01-2.784-.703c-.855-.47-1.636-1.165-2.344-2.09V37h-8.093V6.548h8.233zm2.304 7.754c0-1.647-.06-2.645-.18-2.993-.121-.348-.455-.522-1.002-.522-.534 0-.881.2-1.042.602-.147.402-.22 1.373-.22 2.913V25.35c0 1.607.08 2.61.24 3.013.161.401.508.602 1.042.602.521 0 .841-.18.961-.542.134-.375.201-1.272.201-2.692v-11.43zM126.201.683v32.52h-8.333V.684h8.333zM147.455 20.348h-10.477v5.765c0 1.205.087 1.982.261 2.33.174.348.507.522 1.002.522.614 0 1.021-.227 1.221-.683.214-.468.321-1.366.321-2.691v-3.515h7.672v1.968c0 1.647-.107 2.913-.32 3.796-.201.884-.681 1.828-1.443 2.833a7.138 7.138 0 01-2.904 2.27c-1.162.495-2.624.743-4.387.743-1.71 0-3.219-.248-4.527-.743-1.309-.496-2.331-1.172-3.065-2.03a7.536 7.536 0 01-1.503-2.852c-.28-1.044-.42-2.557-.42-4.54v-7.773c0-2.33.313-4.165.941-5.504.628-1.352 1.656-2.383 3.085-3.093 1.429-.723 3.072-1.085 4.928-1.085 2.27 0 4.14.435 5.609 1.306 1.482.857 2.517 2.002 3.105 3.435.601 1.42.901 3.421.901 6.006v3.535zm-8.113-4.339v-1.948c0-1.38-.073-2.27-.22-2.672-.147-.401-.447-.602-.902-.602-.56 0-.908.174-1.041.522-.134.335-.201 1.252-.201 2.752v1.948h2.364zM158.212 6.548l-.32 3.495c1.175-2.504 2.878-3.83 5.108-3.977v9.38c-1.482 0-2.571.202-3.265.603-.695.402-1.122.965-1.282 1.688-.161.71-.241 2.357-.241 4.941v10.526h-8.093V6.548h8.093z" fill="#fff"/></svg><svg fill="none" viewBox="0 0 12 8" id="footer-subscribe-arrow" xmlns="http://www.w3.org/2000/svg"><path d="M1 3.5a.5.5 0 000 1v-1zm10.354.854a.5.5 0 000-.708L8.172.464a.5.5 0 10-.708.708L10.293 4 7.464 6.828a.5.5 0 10.708.708l3.182-3.182zM1 4.5h10v-1H1v1z" fill="#000"/></svg><svg fill="none" viewBox="0 0 150 46" id="logo-white" xmlns="http://www.w3.org/2000/svg"><path d="M90 40.443H5.127V5.127H29.43l3.038-3.608L31.14 0H18.608l-.95 2.658L8.165 0H.949L.38 2.089l.19 4.746-.569.95v17.848l1.709 1.519-1.14 6.266.38 3.797L0 40.443v5.127h18.228l3.797-1.52 1.71 1.52h7.784l7.785-1.33 8.544 1.33h15l5.507-1.52 4.746 1.52h4.937l11.203-4.367.76-.76z" fill="#fff"/><path d="M34.936 20.696H30V8.924h-4.367v27.531H30V24.683h4.937v11.772h4.367V8.734h-4.367v11.962zm80.886-11.962h-3.227v3.797l3.987-3.418-.76-.38zm-13.291 14.43V8.734h-4.367V30.19l.95-1.14 3.417-5.886zM66.835 12.721l-.57-3.987h-3.607l1.898 2.848 2.279 1.14zM18.037 30c0 .38 0 .76-.19 1.139-.19.38-.19.76-.57.95-.379.379-.949.569-1.708.569-.76 0-1.14-.19-1.709-.57-.19-.38-.38-.57-.57-.95-.19-.379-.19-.759-.19-1.138v-3.418l-3.797-6.266v9.494c-.19 1.899.38 3.607 1.709 5.126 1.33 1.14 3.038 1.71 4.747 1.71s3.418-.57 4.747-1.71a8.33 8.33 0 001.709-5.126v-3.608h-4.178V30zM15.76 8.544c-.95 0-1.709 0-2.658.38-.76.38-1.52.76-2.279 1.519a8.331 8.331 0 00-1.709 5.126v.57l.95 4.747 2.468 3.417.76-.57V15.19c0-.76.19-1.518.57-2.088.379-.38.948-.57 1.708-.57s1.14.19 1.709.57c.38.57.76 1.329.57 2.088v3.038h4.177V15.57c.19-1.899-.38-3.607-1.71-5.126-.569-.57-1.328-1.14-2.278-1.33-.57-.57-1.519-.759-2.278-.57zm97.595 4.557l-.949 5.506v17.848h11.772v-3.987h-7.405v-8.165h5.886v-3.987h-5.886v-7.595h7.405V8.734h-6.646l-4.177 4.367zm18.608 20.506l-2.659-3.228-1.519-4.177v10.253h4.368l-.38-1.139.19-1.709zm8.734-16.329V15.19c.19-1.708-.38-3.417-1.519-4.746-.76-.57-1.519-.95-2.279-1.33-.759-.19-1.708-.38-2.658-.38h-6.456v12.153l.57 1.519-.19 1.708 1.519 6.076 2.469 1.9v-6.836h2.088c.38 0 .57 0 .76.19.19 0 .569.19.759.38.38.569.57 1.328.57 2.088v8.734h4.367V29.24c.19-1.899-.38-3.607-1.519-5.127-.38-.38-.76-.759-1.329-.949 1.899-1.14 2.848-3.038 2.848-5.886zm-4.177 1.14c0 .379 0 .759-.19 1.139l-.57 1.139c-.569.38-1.139.76-1.899.57h-1.708V12.72h2.088c.38 0 .57 0 .95.19.379.19.569.38.759.57.38.57.57 1.329.57 2.088v2.848zm-89.81-9.684L42.34 36.265h3.988l.76-4.936h5.316l.759 4.936h4.367L53.164 8.734h-6.456zm.759 18.987l2.088-14.05 2.089 14.05h-4.177zm22.025.76l-1.899-11.203-1.708-3.987-1.9-1.14L60 8.925v27.531h3.797V16.898l3.228 19.557h4.177l3.038-19.747v19.747h4.177V8.734h-6.076L69.493 28.48zM88.86 8.734h-6.455v27.531h4.367V25.822h2.088c.95 0 1.71 0 2.659-.38.759-.38 1.518-.759 2.278-1.329 1.14-1.518 1.709-3.227 1.519-5.126v-3.608c.19-1.898-.38-3.607-1.519-5.126-.57-.57-1.33-1.14-2.278-1.33-.95-.19-1.9-.19-2.659-.19zm2.089 10.823c0 .759-.19 1.519-.57 2.088-.19.19-.38.38-.76.38-.19 0-.569.19-.759.19h-2.088V12.91h2.088c.38 0 .57 0 .76.19.19 0 .57.19.76.38.379.57.569 1.329.569 2.088v3.988zm11.582 5.886h-.569l-2.849 5.316-.19 2.468-.569 3.038h11.582v-3.987h-7.215l-.19-6.835z" fill="#fff"/><path d="M150 0h-18.228l-9.114 2.278L119.431 0h-5.317l.38 2.658L111.646.95 105 0h-9.304l-1.519 1.519L89.62 0H72.722l-4.557.57-3.038.949L58.67 0H41.962c-.19 0-7.595 1.519-7.595 1.519L30 5.127h114.684v35.316H90.95l-2.09 2.658-2.468.19-1.898 2.279h41.202l5.887-1.52 2.088 1.52h11.393L150 42.532v-4.367l-1.329-3.988L150 23.355V7.025l-1.329-3.038L150 0z" fill="#fff"/></svg><svg fill="none" viewBox="0 0 50 50" id="swiper-arrow-next" xmlns="http://www.w3.org/2000/svg"><circle cx="25" cy="25" r="24.5" stroke="#3D3D3D"/><path d="M15 24.5a.5.5 0 000 1v-1zm20.354.854a.5.5 0 000-.708l-3.182-3.181a.5.5 0 10-.707.707L34.293 25l-2.828 2.828a.5.5 0 10.707.707l3.182-3.181zM15 25.5h20v-1H15v1z" fill="#000"/></svg><svg fill="none" viewBox="0 0 50 50" id="swiper-arrow-prev" xmlns="http://www.w3.org/2000/svg"><circle r="24.5" transform="matrix(-1 0 0 1 25 25)" stroke="#3D3D3D"/><path d="M35 24.5a.5.5 0 010 1v-1zm-20.354.854a.5.5 0 010-.708l3.182-3.181a.5.5 0 11.707.707L15.707 25l2.828 2.828a.5.5 0 11-.707.707l-3.182-3.181zM35 25.5H15v-1h20v1z" fill="#000"/></svg></svg>