<?xml version="1.0" encoding="utf-8"?><svg viewBox="0 0 150 46" xmlns="http://www.w3.org/2000/svg" xmlns:xlink="http://www.w3.org/1999/xlink"><style>:root>svg{display:none}:root>svg:target{display:block}</style><svg fill="none" viewBox="0 0 150 46" id="logo-white" xmlns="http://www.w3.org/2000/svg"><path d="M90 40.443H5.127V5.127H29.43l3.038-3.608L31.14 0H18.608l-.95 2.658L8.165 0H.949L.38 2.089l.19 4.746-.569.95v17.848l1.709 1.519-1.14 6.266.38 3.797L0 40.443v5.127h18.228l3.797-1.52 1.71 1.52h7.784l7.785-1.33 8.544 1.33h15l5.507-1.52 4.746 1.52h4.937l11.203-4.367.76-.76z" fill="#fff"/><path d="M34.936 20.696H30V8.924h-4.367v27.531H30V24.683h4.937v11.772h4.367V8.734h-4.367v11.962zm80.886-11.962h-3.227v3.797l3.987-3.418-.76-.38zm-13.291 14.43V8.734h-4.367V30.19l.95-1.14 3.417-5.886zM66.835 12.721l-.57-3.987h-3.607l1.898 2.848 2.279 1.14zM18.037 30c0 .38 0 .76-.19 1.139-.19.38-.19.76-.57.95-.379.379-.949.569-1.708.569-.76 0-1.14-.19-1.709-.57-.19-.38-.38-.57-.57-.95-.19-.379-.19-.759-.19-1.138v-3.418l-3.797-6.266v9.494c-.19 1.899.38 3.607 1.709 5.126 1.33 1.14 3.038 1.71 4.747 1.71s3.418-.57 4.747-1.71a8.33 8.33 0 001.709-5.126v-3.608h-4.178V30zM15.76 8.544c-.95 0-1.709 0-2.658.38-.76.38-1.52.76-2.279 1.519a8.331 8.331 0 00-1.709 5.126v.57l.95 4.747 2.468 3.417.76-.57V15.19c0-.76.19-1.518.57-2.088.379-.38.948-.57 1.708-.57s1.14.19 1.709.57c.38.57.76 1.329.57 2.088v3.038h4.177V15.57c.19-1.899-.38-3.607-1.71-5.126-.569-.57-1.328-1.14-2.278-1.33-.57-.57-1.519-.759-2.278-.57zm97.595 4.557l-.949 5.506v17.848h11.772v-3.987h-7.405v-8.165h5.886v-3.987h-5.886v-7.595h7.405V8.734h-6.646l-4.177 4.367zm18.608 20.506l-2.659-3.228-1.519-4.177v10.253h4.368l-.38-1.139.19-1.709zm8.734-16.329V15.19c.19-1.708-.38-3.417-1.519-4.746-.76-.57-1.519-.95-2.279-1.33-.759-.19-1.708-.38-2.658-.38h-6.456v12.153l.57 1.519-.19 1.708 1.519 6.076 2.469 1.9v-6.836h2.088c.38 0 .57 0 .76.19.19 0 .569.19.759.38.38.569.57 1.328.57 2.088v8.734h4.367V29.24c.19-1.899-.38-3.607-1.519-5.127-.38-.38-.76-.759-1.329-.949 1.899-1.14 2.848-3.038 2.848-5.886zm-4.177 1.14c0 .379 0 .759-.19 1.139l-.57 1.139c-.569.38-1.139.76-1.899.57h-1.708V12.72h2.088c.38 0 .57 0 .95.19.379.19.569.38.759.57.38.57.57 1.329.57 2.088v2.848zm-89.81-9.684L42.34 36.265h3.988l.76-4.936h5.316l.759 4.936h4.367L53.164 8.734h-6.456zm.759 18.987l2.088-14.05 2.089 14.05h-4.177zm22.025.76l-1.899-11.203-1.708-3.987-1.9-1.14L60 8.925v27.531h3.797V16.898l3.228 19.557h4.177l3.038-19.747v19.747h4.177V8.734h-6.076L69.493 28.48zM88.86 8.734h-6.455v27.531h4.367V25.822h2.088c.95 0 1.71 0 2.659-.38.759-.38 1.518-.759 2.278-1.329 1.14-1.518 1.709-3.227 1.519-5.126v-3.608c.19-1.898-.38-3.607-1.519-5.126-.57-.57-1.33-1.14-2.278-1.33-.95-.19-1.9-.19-2.659-.19zm2.089 10.823c0 .759-.19 1.519-.57 2.088-.19.19-.38.38-.76.38-.19 0-.569.19-.759.19h-2.088V12.91h2.088c.38 0 .57 0 .76.19.19 0 .57.19.76.38.379.57.569 1.329.569 2.088v3.988zm11.582 5.886h-.569l-2.849 5.316-.19 2.468-.569 3.038h11.582v-3.987h-7.215l-.19-6.835z" fill="#fff"/><path d="M150 0h-18.228l-9.114 2.278L119.431 0h-5.317l.38 2.658L111.646.95 105 0h-9.304l-1.519 1.519L89.62 0H72.722l-4.557.57-3.038.949L58.67 0H41.962c-.19 0-7.595 1.519-7.595 1.519L30 5.127h114.684v35.316H90.95l-2.09 2.658-2.468.19-1.898 2.279h41.202l5.887-1.52 2.088 1.52h11.393L150 42.532v-4.367l-1.329-3.988L150 23.355V7.025l-1.329-3.038L150 0z" fill="#fff"/></svg></svg>