<svg width="163" height="37" viewBox="0 0 163 37" fill="none" xmlns="http://www.w3.org/2000/svg">
<path d="M19.9318 14.8643H11.4983V9.19978C11.4983 7.55266 11.4049 6.52823 11.2179 6.12649C11.0443 5.71136 10.6503 5.5038 10.036 5.5038C9.34157 5.5038 8.90086 5.75154 8.7139 6.24701C8.52693 6.74249 8.43345 7.81379 8.43345 9.46091V24.5662C8.43345 26.1464 8.52693 27.1775 8.7139 27.6596C8.90086 28.1417 9.32154 28.3827 9.97591 28.3827C10.6036 28.3827 11.0109 28.1417 11.1979 27.6596C11.3982 27.1775 11.4983 26.046 11.4983 24.2649V20.1873H19.9318V21.4528C19.9318 24.814 19.6914 27.1976 19.2106 28.6037C18.7432 30.0098 17.6949 31.2418 16.0656 32.2997C14.4497 33.3576 12.4532 33.8865 10.0761 33.8865C7.60546 33.8865 5.56888 33.4379 3.96633 32.5407C2.36377 31.6435 1.30208 30.4048 0.781246 28.8246C0.260415 27.2311 0 24.8408 0 21.6536V12.1526C0 9.80908 0.0801278 8.05483 0.240383 6.88979C0.400639 5.71136 0.874729 4.5798 1.66265 3.49511C2.46393 2.41042 3.56569 1.56008 4.96792 0.944082C6.38352 0.314694 8.0061 0 9.83569 0C12.3197 0 14.3696 0.482085 15.9855 1.44625C17.6014 2.41042 18.6631 3.61564 19.1706 5.06189C19.6781 6.49475 19.9318 8.73109 19.9318 11.7709V14.8643Z" fill="white"/>
<path d="M30.8091 0.682953V7.99457C31.5036 7.35179 32.2514 6.86971 33.0527 6.54832C33.8674 6.22693 34.7354 6.06623 35.6569 6.06623C37.0725 6.06623 38.2744 6.4278 39.2626 7.15092C40.2642 7.87405 40.8719 8.711 41.0855 9.66178C41.3126 10.5992 41.4261 12.3199 41.4261 14.8241V33.2036H33.3332V14.4425C33.3332 12.8891 33.253 11.8914 33.0928 11.4495C32.9459 11.0076 32.6053 10.7866 32.0712 10.7866C31.577 10.7866 31.2432 11.0143 31.0696 11.4696C30.8959 11.9249 30.8091 12.8288 30.8091 14.1813V33.2036H22.7162V0.682953H30.8091Z" fill="white"/>
<path d="M51.4621 16.873H43.87V15.0852C43.87 13.023 44.1037 11.4361 44.5711 10.3246C45.0519 9.19978 46.0067 8.20883 47.4357 7.35179C48.8646 6.49475 50.7209 6.06623 53.0045 6.06623C55.7422 6.06623 57.8055 6.55501 59.1944 7.53257C60.5833 8.49674 61.418 9.68856 61.6984 11.108C61.9789 12.5141 62.1191 15.42 62.1191 19.8257V33.2036H54.2465V30.8333C53.7524 31.7841 53.1114 32.5005 52.3235 32.9826C51.5489 33.4513 50.6207 33.6857 49.539 33.6857C48.1234 33.6857 46.8214 33.2906 45.6328 32.5005C44.4576 31.6971 43.87 29.9495 43.87 27.2579V25.0684C43.87 23.0731 44.1838 21.7139 44.8115 20.9908C45.4391 20.2676 46.995 19.424 49.4789 18.4598C52.1365 17.4153 53.5588 16.7123 53.7457 16.3507C53.9327 15.9891 54.0262 15.2526 54.0262 14.1412C54.0262 12.7485 53.9193 11.8446 53.7057 11.4294C53.5053 11.0009 53.1648 10.7866 52.684 10.7866C52.1365 10.7866 51.796 10.9674 51.6624 11.329C51.5289 11.6772 51.4621 12.5945 51.4621 14.0809V16.873ZM54.0262 20.5288C52.7308 21.4796 51.9762 22.2763 51.7626 22.9191C51.5622 23.5619 51.4621 24.4859 51.4621 25.6911C51.4621 27.0704 51.5489 27.9609 51.7225 28.3626C51.9095 28.7644 52.27 28.9653 52.8042 28.9653C53.3117 28.9653 53.6389 28.8113 53.7858 28.5033C53.946 28.1819 54.0262 27.3516 54.0262 26.0125V20.5288Z" fill="white"/>
<path d="M72.8963 6.54832L72.7561 9.07926C73.3837 8.07492 74.1316 7.32501 74.9996 6.82953C75.8677 6.32067 76.8559 6.06623 77.9644 6.06623C80.1278 6.06623 81.8305 7.07058 83.0725 9.07926C83.7536 8.07492 84.5215 7.32501 85.3762 6.82953C86.2309 6.32067 87.1791 6.06623 88.2207 6.06623C89.5962 6.06623 90.7314 6.40101 91.6262 7.07058C92.5343 7.74014 93.1152 8.5637 93.3689 9.54126C93.6227 10.5054 93.7495 12.0789 93.7495 14.2617V33.2036H85.897V15.8284C85.897 13.5519 85.8169 12.1459 85.6566 11.6102C85.5097 11.0612 85.1558 10.7866 84.5949 10.7866C84.0207 10.7866 83.6468 11.0545 83.4731 11.5901C83.3129 12.1258 83.2328 13.5385 83.2328 15.8284V33.2036H75.3802V16.2704C75.3802 13.6591 75.3135 12.0923 75.1799 11.57C75.0597 11.0478 74.7125 10.7866 74.1383 10.7866C73.7777 10.7866 73.4705 10.9273 73.2168 11.2085C72.9631 11.4763 72.8228 11.8111 72.7961 12.2128C72.7694 12.6012 72.7561 13.4381 72.7561 14.7237V33.2036H64.9035V6.54832H72.8963Z" fill="white"/>
<path d="M104.787 6.54832L104.647 8.89848C105.368 7.9477 106.163 7.23797 107.031 6.76927C107.899 6.30058 108.847 6.06623 109.875 6.06623C111.131 6.06623 112.212 6.40771 113.12 7.09066C114.042 7.76022 114.616 8.53692 114.843 9.42074C115.07 10.3046 115.184 11.8044 115.184 13.9202V25.1488C115.184 27.5726 115.037 29.3 114.743 30.3312C114.463 31.3489 113.875 32.1658 112.98 32.7818C112.099 33.3844 111.03 33.6857 109.775 33.6857C108.774 33.6857 107.845 33.4513 106.991 32.9826C106.136 32.5139 105.355 31.8176 104.647 30.8936V37H96.554V6.54832H104.787ZM107.091 14.3018C107.091 12.6547 107.031 11.6571 106.911 11.3089C106.79 10.9607 106.456 10.7866 105.909 10.7866C105.375 10.7866 105.028 10.9875 104.867 11.3893C104.72 11.791 104.647 12.7619 104.647 14.3018V25.3496C104.647 26.9566 104.727 27.9609 104.887 28.3626C105.048 28.7644 105.395 28.9653 105.929 28.9653C106.45 28.9653 106.77 28.7845 106.89 28.4229C107.024 28.048 107.091 27.1507 107.091 25.7313V14.3018Z" fill="white"/>
<path d="M126.201 0.682953V33.2036H117.868V0.682953H126.201Z" fill="white"/>
<path d="M147.455 20.348H136.978V26.1129C136.978 27.3181 137.065 28.0948 137.239 28.443C137.413 28.7912 137.746 28.9653 138.241 28.9653C138.855 28.9653 139.262 28.7376 139.462 28.2823C139.676 27.8136 139.783 26.9164 139.783 25.5907V22.0755H147.455V24.044C147.455 25.6911 147.348 26.9566 147.135 27.8404C146.934 28.7242 146.454 29.6683 145.692 30.6726C144.931 31.677 143.963 32.4336 142.788 32.9425C141.626 33.4379 140.164 33.6857 138.401 33.6857C136.691 33.6857 135.182 33.4379 133.874 32.9425C132.565 32.447 131.543 31.7707 130.809 30.9137C130.087 30.0432 129.587 29.0925 129.306 28.0613C129.026 27.0168 128.886 25.5036 128.886 23.5217V15.7481C128.886 13.418 129.199 11.5834 129.827 10.2443C130.455 8.89178 131.483 7.86066 132.912 7.15092C134.341 6.4278 135.984 6.06623 137.84 6.06623C140.11 6.06623 141.98 6.50145 143.449 7.37188C144.931 8.22892 145.966 9.37387 146.554 10.8067C147.155 12.2262 147.455 14.2282 147.455 16.8127V20.348ZM139.342 16.0092V14.0608C139.342 12.6815 139.269 11.791 139.122 11.3893C138.975 10.9875 138.675 10.7866 138.22 10.7866C137.66 10.7866 137.312 10.9607 137.179 11.3089C137.045 11.6437 136.978 12.561 136.978 14.0608V16.0092H139.342Z" fill="white"/>
<path d="M158.212 6.54832L157.892 10.0434C159.067 7.53927 160.77 6.21354 163 6.06623V15.4468C161.518 15.4468 160.429 15.6477 159.735 16.0494C159.04 16.4511 158.613 17.0136 158.453 17.7367C158.292 18.4464 158.212 20.0936 158.212 22.6781V33.2036H150.119V6.54832H158.212Z" fill="white"/>
</svg>
