<svg width="18" height="16" viewBox="0 0 18 16" fill="none" xmlns="http://www.w3.org/2000/svg">
<path d="M16.8984 3.26556C16.6297 2.64337 16.2423 2.07955 15.7578 1.60566C15.2729 1.13036 14.7012 0.752645 14.0738 0.493055C13.4233 0.222807 12.7255 0.0844789 12.0211 0.0861004C11.0327 0.0861004 10.0685 0.356735 9.23054 0.867934C9.03008 0.99022 8.83963 1.12454 8.65921 1.27088C8.47879 1.12454 8.28835 0.99022 8.08788 0.867934C7.24993 0.356735 6.28568 0.0861004 5.29738 0.0861004C4.58572 0.0861004 3.89611 0.22242 3.24459 0.493055C2.61512 0.753666 2.0478 1.12854 1.56066 1.60566C1.07553 2.07902 0.687985 2.64297 0.420005 3.26556C0.141355 3.91307 -0.000976562 4.60069 -0.000976562 5.30835C-0.000976562 5.97591 0.135341 6.67154 0.405972 7.3792C0.6325 7.97059 0.957257 8.58403 1.37222 9.20348C2.02976 10.1838 2.93387 11.2062 4.05648 12.2426C5.91682 13.9606 7.75911 15.1474 7.8373 15.1955L8.3124 15.5002C8.5229 15.6346 8.79353 15.6346 9.00402 15.5002L9.47912 15.1955C9.55731 15.1454 11.3976 13.9606 13.2599 12.2426C14.3826 11.2062 15.2867 10.1838 15.9442 9.20348C16.3592 8.58403 16.6859 7.97059 16.9104 7.3792C17.1811 6.67154 17.3174 5.97591 17.3174 5.30835C17.3194 4.60069 17.1771 3.91307 16.8984 3.26556ZM8.65921 13.9145C8.65921 13.9145 1.52258 9.3418 1.52258 5.30835C1.52258 3.26556 3.21251 1.60967 5.29738 1.60967C6.76279 1.60967 8.03375 2.42759 8.65921 3.62239C9.28467 2.42759 10.5556 1.60967 12.0211 1.60967C14.1059 1.60967 15.7958 3.26556 15.7958 5.30835C15.7958 9.3418 8.65921 13.9145 8.65921 13.9145Z" fill="black"/>
<path d="M16.8984 3.26541C16.6297 2.64322 16.2423 2.0794 15.7578 1.60551C15.2729 1.13021 14.7012 0.752496 14.0738 0.492906C13.4233 0.222658 12.7255 0.0843302 12.0211 0.0859516C11.0327 0.0859516 10.0685 0.356586 9.23054 0.867785C9.03008 0.990072 8.83963 1.12439 8.65921 1.27073C8.47879 1.12439 8.28835 0.990072 8.08788 0.867785C7.24993 0.356586 6.28568 0.0859516 5.29738 0.0859516C4.58572 0.0859516 3.89611 0.222271 3.24459 0.492906C2.61512 0.753517 2.0478 1.1284 1.56066 1.60551C1.07553 2.07887 0.687985 2.64282 0.420005 3.26541C0.141355 3.91293 -0.000976562 4.60054 -0.000976562 5.3082C-0.000976562 5.97576 0.135341 6.67139 0.405972 7.37905C0.6325 7.97044 0.957257 8.58388 1.37222 9.20333C2.02976 10.1836 2.93387 11.206 4.05648 12.2425C5.91682 13.9605 7.75911 15.1473 7.8373 15.1954L8.3124 15.5001C8.5229 15.6344 8.79353 15.6344 9.00402 15.5001L9.47912 15.1954C9.55731 15.1453 11.3976 13.9605 13.2599 12.2425C14.3826 11.206 15.2867 10.1836 15.9442 9.20333C16.3592 8.58388 16.6859 7.97044 16.9104 7.37905C17.1811 6.67139 17.3174 5.97576 17.3174 5.3082C17.3194 4.60054 17.1771 3.91293 16.8984 3.26541Z" fill="black"/>
</svg>
