<svg width="18" height="16" viewBox="0 0 18 16" xmlns="http://www.w3.org/2000/svg">
<path d="M17.0273 3.53859C16.7655 2.93241 16.3881 2.3831 15.916 1.9214C15.4436 1.45833 14.8866 1.09033 14.2754 0.837416C13.6416 0.574121 12.9617 0.439352 12.2754 0.440932C11.3125 0.440932 10.373 0.704604 9.55664 1.20265C9.36133 1.32179 9.17578 1.45265 9 1.59523C8.82422 1.45265 8.63867 1.32179 8.44336 1.20265C7.62695 0.704604 6.6875 0.440932 5.72461 0.440932C5.03125 0.440932 4.35938 0.573744 3.72461 0.837416C3.11133 1.09132 2.55859 1.45656 2.08398 1.9214C1.61132 2.38258 1.23375 2.93202 0.972656 3.53859C0.701172 4.16945 0.5625 4.83937 0.5625 5.52882C0.5625 6.17921 0.695313 6.85695 0.958984 7.5464C1.17969 8.12257 1.49609 8.72023 1.90039 9.32374C2.54102 10.2788 3.42188 11.2749 4.51562 12.2847C6.32812 13.9585 8.12305 15.1148 8.19922 15.1616L8.66211 15.4585C8.86719 15.5894 9.13086 15.5894 9.33594 15.4585L9.79883 15.1616C9.875 15.1128 11.668 13.9585 13.4824 12.2847C14.5762 11.2749 15.457 10.2788 16.0977 9.32374C16.502 8.72023 16.8203 8.12257 17.0391 7.5464C17.3027 6.85695 17.4355 6.17921 17.4355 5.52882C17.4375 4.83937 17.2988 4.16945 17.0273 3.53859ZM9 13.9136C9 13.9136 2.04688 9.45851 2.04688 5.52882C2.04688 3.53859 3.69336 1.92531 5.72461 1.92531C7.15234 1.92531 8.39062 2.72218 9 3.88624C9.60938 2.72218 10.8477 1.92531 12.2754 1.92531C14.3066 1.92531 15.9531 3.53859 15.9531 5.52882C15.9531 9.45851 9 13.9136 9 13.9136Z" fill="currentColor"/>
</svg>
