<svg width="21" height="20" viewBox="0 0 21 20" fill="none" xmlns="http://www.w3.org/2000/svg">
<path d="M18.2525 5.70238C18.2431 5.52223 18.0944 5.38081 17.9138 5.38081H2.99854C2.81799 5.38081 2.66923 5.52213 2.65989 5.70238L1.98189 18.9227C1.97712 19.0155 2.01069 19.1062 2.07465 19.1736C2.1387 19.2408 2.22749 19.279 2.32044 19.279H18.5916C18.6845 19.279 18.7733 19.2409 18.8377 19.1736C18.9016 19.1062 18.9351 19.0156 18.9305 18.9227L18.2525 5.70238ZM2.67717 18.601L3.32041 6.05871H17.5915L18.2348 18.601H2.67717Z" fill="currentColor"/>
<path d="M7.91362 5.75124H7.93974C8.12684 5.75124 8.27869 5.59939 8.27869 5.41229C8.27869 5.36601 8.26955 5.32182 8.25257 5.2816V3.54792C8.25257 2.33305 9.24102 1.3445 10.456 1.3445C11.671 1.3445 12.6594 2.33295 12.6594 3.54792V5.41219C12.6594 5.59929 12.8113 5.75114 12.9984 5.75114C13.1855 5.75114 13.3373 5.59929 13.3373 5.41219V3.54782C13.3373 1.95904 12.0448 0.666504 10.456 0.666504C8.86721 0.666504 7.57467 1.95904 7.57467 3.54782L7.57467 5.41219C7.57467 5.5993 7.72652 5.75124 7.91362 5.75124Z" fill="currentColor"/>
<path d="M18.2525 5.70238C18.2431 5.52223 18.0944 5.38081 17.9138 5.38081H2.99854C2.81799 5.38081 2.66923 5.52213 2.65989 5.70238L1.98189 18.9227C1.97712 19.0155 2.01069 19.1062 2.07465 19.1736C2.1387 19.2408 2.22749 19.279 2.32044 19.279H18.5916C18.6845 19.279 18.7733 19.2409 18.8377 19.1736C18.9016 19.1062 18.9351 19.0156 18.9305 18.9227L18.2525 5.70238ZM2.67717 18.601L3.32041 6.05871H17.5915L18.2348 18.601H2.67717Z" stroke="currentColor" stroke-width="0.5"/>
<path d="M7.91362 5.75124H7.93974C8.12684 5.75124 8.27869 5.59939 8.27869 5.41229C8.27869 5.36601 8.26955 5.32182 8.25257 5.2816V3.54792C8.25257 2.33305 9.24102 1.3445 10.456 1.3445C11.671 1.3445 12.6594 2.33295 12.6594 3.54792V5.41219C12.6594 5.59929 12.8113 5.75114 12.9984 5.75114C13.1855 5.75114 13.3373 5.59929 13.3373 5.41219V3.54782C13.3373 1.95904 12.0448 0.666504 10.456 0.666504C8.86721 0.666504 7.57467 1.95904 7.57467 3.54782L7.57467 5.41219C7.57467 5.5993 7.72652 5.75124 7.91362 5.75124Z" stroke="currentColor" stroke-width="0.5"/>
</svg>
