<svg width="50" height="50" viewBox="0 0 50 50" fill="none" xmlns="http://www.w3.org/2000/svg">
<circle r="24.5" transform="matrix(-1 0 0 1 25 25)" stroke="#3D3D3D"/>
<path d="M35 24.5C35.2761 24.5 35.5 24.7239 35.5 25C35.5 25.2761 35.2761 25.5 35 25.5V24.5ZM14.6464 25.3536C14.4512 25.1583 14.4512 24.8417 14.6464 24.6464L17.8284 21.4645C18.0237 21.2692 18.3403 21.2692 18.5355 21.4645C18.7308 21.6597 18.7308 21.9763 18.5355 22.1716L15.7071 25L18.5355 27.8284C18.7308 28.0237 18.7308 28.3403 18.5355 28.5355C18.3403 28.7308 18.0237 28.7308 17.8284 28.5355L14.6464 25.3536ZM35 25.5H15V24.5H35V25.5Z" fill="black"/>
</svg>
