<svg width="20" height="20" viewBox="0 0 20 20" fill="none" xmlns="http://www.w3.org/2000/svg">
<path d="M16.25 18.85H16.35V18.75V15.625V15.6249C16.3471 13.1547 14.3453 11.1529 11.8751 11.15H11.875H8.125H8.12488C5.65467 11.1529 3.65289 13.1547 3.65 15.6249V15.625V18.75V18.85H3.75H5H5.1V18.75L5.1 15.6251C5.1 15.6251 5.1 15.625 5.1 15.625C5.10203 13.9551 6.45525 12.602 8.12512 12.6H11.8749C13.5448 12.602 14.898 13.9552 14.9 15.6251V18.75V18.85H15H16.25ZM10 1.15C7.52853 1.15 5.525 3.15353 5.525 5.625C5.525 8.09647 7.52853 10.1 10 10.1C12.4715 10.1 14.475 8.09647 14.475 5.625C14.475 3.15353 12.4715 1.15 10 1.15ZM6.975 5.62511C6.9769 3.95521 8.33012 2.60196 10 2.6C11.6707 2.6 13.025 3.95434 13.025 5.625C13.025 7.29566 11.6707 8.65 10 8.65C8.32938 8.65 6.97506 7.29572 6.975 5.62511Z" fill="currentColor" stroke="currentColor" stroke-width="0.2"/>
</svg>
